<svg id="visual" viewBox="0 0 900 600" width="900" height="600" xmlns="http://www.w3.org/2000/svg" xmlns:xlink="http://www.w3.org/1999/xlink" version="1.1"><path d="M0 329L21.5 317.7C43 306.3 86 283.7 128.8 275C171.7 266.3 214.3 271.7 257.2 288.3C300 305 343 333 385.8 344.8C428.7 356.7 471.3 352.3 514.2 330.7C557 309 600 270 642.8 273.8C685.7 277.7 728.3 324.3 771.2 326.5C814 328.7 857 286.3 878.5 265.2L900 244L900 601L878.5 601C857 601 814 601 771.2 601C728.3 601 685.7 601 642.8 601C600 601 557 601 514.2 601C471.3 601 428.7 601 385.8 601C343 601 300 601 257.2 601C214.3 601 171.7 601 128.8 601C86 601 43 601 21.5 601L0 601Z" fill="#334155" stroke-linecap="round" stroke-linejoin="miter"></path></svg>