<svg id="visual" viewBox="0 0 900 600" width="900" height="600" xmlns="http://www.w3.org/2000/svg" xmlns:xlink="http://www.w3.org/1999/xlink" version="1.1"><path d="M0 134L21.5 141.3C43 148.7 86 163.3 128.8 172C171.7 180.7 214.3 183.3 257.2 176C300 168.7 343 151.3 385.8 137.5C428.7 123.7 471.3 113.3 514.2 110C557 106.7 600 110.3 642.8 129.7C685.7 149 728.3 184 771.2 181.8C814 179.7 857 140.3 878.5 120.7L900 101L900 0L878.5 0C857 0 814 0 771.2 0C728.3 0 685.7 0 642.8 0C600 0 557 0 514.2 0C471.3 0 428.7 0 385.8 0C343 0 300 0 257.2 0C214.3 0 171.7 0 128.8 0C86 0 43 0 21.5 0L0 0Z" fill="#f1f5f9" stroke-linecap="round" stroke-linejoin="miter"></path></svg>