<svg id="visual" viewBox="0 0 900 600" width="900" height="600" xmlns="http://www.w3.org/2000/svg" xmlns:xlink="http://www.w3.org/1999/xlink" version="1.1"><path d="M0 334L30 339.3C60 344.7 120 355.3 180 343.5C240 331.7 300 297.3 360 280.8C420 264.3 480 265.7 540 280.8C600 296 660 325 720 326.2C780 327.3 840 300.7 870 287.3L900 274L900 601L870 601C840 601 780 601 720 601C660 601 600 601 540 601C480 601 420 601 360 601C300 601 240 601 180 601C120 601 60 601 30 601L0 601Z" fill="#e2e8f0" stroke-linecap="round" stroke-linejoin="miter"></path></svg>