<svg id="visual" viewBox="0 0 900 900" width="900" height="900" xmlns="http://www.w3.org/2000/svg" xmlns:xlink="http://www.w3.org/1999/xlink" version="1.1"><path d="M0 785L21.5 776.3C43 767.7 86 750.3 128.8 751.8C171.7 753.3 214.3 773.7 257.2 788.5C300 803.3 343 812.7 385.8 803.7C428.7 794.7 471.3 767.3 514.2 756.5C557 745.7 600 751.3 642.8 760.8C685.7 770.3 728.3 783.7 771.2 792.2C814 800.7 857 804.3 878.5 806.2L900 808L900 901L878.5 901C857 901 814 901 771.2 901C728.3 901 685.7 901 642.8 901C600 901 557 901 514.2 901C471.3 901 428.7 901 385.8 901C343 901 300 901 257.2 901C214.3 901 171.7 901 128.8 901C86 901 43 901 21.5 901L0 901Z" fill="#374151" stroke-linecap="round" stroke-linejoin="miter"></path></svg>