<svg id="visual" viewBox="0 0 900 100" width="900" height="100" xmlns="http://www.w3.org/2000/svg" xmlns:xlink="http://www.w3.org/1999/xlink" version="1.1"><rect x="0" y="0" width="900" height="100" fill="#374151"></rect><path d="M0 60L21.5 63C43 66 86 72 128.8 74.2C171.7 76.3 214.3 74.7 257.2 70C300 65.3 343 57.7 385.8 55.3C428.7 53 471.3 56 514.2 59.3C557 62.7 600 66.3 642.8 68.8C685.7 71.3 728.3 72.7 771.2 72.2C814 71.7 857 69.3 878.5 68.2L900 67L900 101L878.5 101C857 101 814 101 771.2 101C728.3 101 685.7 101 642.8 101C600 101 557 101 514.2 101C471.3 101 428.7 101 385.8 101C343 101 300 101 257.2 101C214.3 101 171.7 101 128.8 101C86 101 43 101 21.5 101L0 101Z" fill="#e2e8f0" stroke-linecap="round" stroke-linejoin="miter"></path></svg>