<svg id="visual" viewBox="0 0 900 600" width="900" height="600" xmlns="http://www.w3.org/2000/svg" xmlns:xlink="http://www.w3.org/1999/xlink" version="1.1"><path d="M0 456L21.5 454.8C43 453.7 86 451.3 128.8 454.2C171.7 457 214.3 465 257.2 457.3C300 449.7 343 426.3 385.8 434.7C428.7 443 471.3 483 514.2 493.8C557 504.7 600 486.3 642.8 471.2C685.7 456 728.3 444 771.2 451.5C814 459 857 486 878.5 499.5L900 513L900 601L878.5 601C857 601 814 601 771.2 601C728.3 601 685.7 601 642.8 601C600 601 557 601 514.2 601C471.3 601 428.7 601 385.8 601C343 601 300 601 257.2 601C214.3 601 171.7 601 128.8 601C86 601 43 601 21.5 601L0 601Z" fill="#e2e8f0" stroke-linecap="round" stroke-linejoin="miter"></path></svg>