<svg id="visual" viewBox="0 0 900 600" width="900" height="600" xmlns="http://www.w3.org/2000/svg" xmlns:xlink="http://www.w3.org/1999/xlink" version="1.1"><path d="M0 521L21.5 511.8C43 502.7 86 484.3 128.8 484.2C171.7 484 214.3 502 257.2 505C300 508 343 496 385.8 472C428.7 448 471.3 412 514.2 408.3C557 404.7 600 433.3 642.8 457.8C685.7 482.3 728.3 502.7 771.2 500.7C814 498.7 857 474.3 878.5 462.2L900 450L900 601L878.5 601C857 601 814 601 771.2 601C728.3 601 685.7 601 642.8 601C600 601 557 601 514.2 601C471.3 601 428.7 601 385.8 601C343 601 300 601 257.2 601C214.3 601 171.7 601 128.8 601C86 601 43 601 21.5 601L0 601Z" fill="#374151" stroke-linecap="round" stroke-linejoin="miter"></path></svg>