<svg id="visual" viewBox="0 0 900 330" width="900" height="330" xmlns="http://www.w3.org/2000/svg" xmlns:xlink="http://www.w3.org/1999/xlink" version="1.1"><path d="M0 27L15 27C30 27 60 27 90 25.5C120 24 150 21 180 18.3C210 15.7 240 13.3 270 13.8C300 14.3 330 17.7 360 20.3C390 23 420 25 450 23.8C480 22.7 510 18.3 540 16.2C570 14 600 14 630 16.2C660 18.3 690 22.7 720 24.8C750 27 780 27 810 27C840 27 870 27 885 27L900 27L900 0L885 0C870 0 840 0 810 0C780 0 750 0 720 0C690 0 660 0 630 0C600 0 570 0 540 0C510 0 480 0 450 0C420 0 390 0 360 0C330 0 300 0 270 0C240 0 210 0 180 0C150 0 120 0 90 0C60 0 30 0 15 0L0 0Z" fill="#374151"></path><path d="M0 57L15 56C30 55 60 53 90 50.8C120 48.7 150 46.3 180 43.5C210 40.7 240 37.3 270 36.8C300 36.3 330 38.7 360 42.5C390 46.3 420 51.7 450 50.5C480 49.3 510 41.7 540 39C570 36.3 600 38.7 630 40.8C660 43 690 45 720 45C750 45 780 43 810 42C840 41 870 41 885 41L900 41L900 25L885 25C870 25 840 25 810 25C780 25 750 25 720 22.8C690 20.7 660 16.3 630 14.2C600 12 570 12 540 14.2C510 16.3 480 20.7 450 21.8C420 23 390 21 360 18.3C330 15.7 300 12.3 270 11.8C240 11.3 210 13.7 180 16.3C150 19 120 22 90 23.5C60 25 30 25 15 25L0 25Z" fill="#687180"></path><path d="M0 77L15 74.8C30 72.7 60 68.3 90 64.5C120 60.7 150 57.3 180 56.2C210 55 240 56 270 55.5C300 55 330 53 360 55.2C390 57.3 420 63.7 450 63.7C480 63.7 510 57.3 540 55.7C570 54 600 57 630 59.7C660 62.3 690 64.7 720 64.7C750 64.7 780 62.3 810 60.7C840 59 870 58 885 57.5L900 57L900 39L885 39C870 39 840 39 810 40C780 41 750 43 720 43C690 43 660 41 630 38.8C600 36.7 570 34.3 540 37C510 39.7 480 47.3 450 48.5C420 49.7 390 44.3 360 40.5C330 36.7 300 34.3 270 34.8C240 35.3 210 38.7 180 41.5C150 44.3 120 46.7 90 48.8C60 51 30 53 15 54L0 55Z" fill="#9ea5b1"></path><path d="M0 113L15 115.2C30 117.3 60 121.7 90 116.2C120 110.7 150 95.3 180 89.8C210 84.3 240 88.7 270 93.7C300 98.7 330 104.3 360 107.2C390 110 420 110 450 110C480 110 510 110 540 107.2C570 104.3 600 98.7 630 98.7C660 98.7 690 104.3 720 105.5C750 106.7 780 103.3 810 101.7C840 100 870 100 885 100L900 100L900 55L885 55.5C870 56 840 57 810 58.7C780 60.3 750 62.7 720 62.7C690 62.7 660 60.3 630 57.7C600 55 570 52 540 53.7C510 55.3 480 61.7 450 61.7C420 61.7 390 55.3 360 53.2C330 51 300 53 270 53.5C240 54 210 53 180 54.2C150 55.3 120 58.7 90 62.5C60 66.3 30 70.7 15 72.8L0 75Z" fill="#d6dde5"></path><path d="M0 183L15 187.3C30 191.7 60 200.3 90 192.5C120 184.7 150 160.3 180 149.8C210 139.3 240 142.7 270 149.3C300 156 330 166 360 173.7C390 181.3 420 186.7 450 183.3C480 180 510 168 540 163.7C570 159.3 600 162.7 630 167.7C660 172.7 690 179.3 720 182.7C750 186 780 186 810 184.8C840 183.7 870 181.3 885 180.2L900 179L900 98L885 98C870 98 840 98 810 99.7C780 101.3 750 104.7 720 103.5C690 102.3 660 96.7 630 96.7C600 96.7 570 102.3 540 105.2C510 108 480 108 450 108C420 108 390 108 360 105.2C330 102.3 300 96.7 270 91.7C240 86.7 210 82.3 180 87.8C150 93.3 120 108.7 90 114.2C60 119.7 30 115.3 15 113.2L0 111Z" fill="#e2e8f0"></path><path d="M0 249L15 250.5C30 252 60 255 90 254.3C120 253.7 150 249.3 180 247.8C210 246.3 240 247.7 270 250.5C300 253.3 330 257.7 360 262.5C390 267.3 420 272.7 450 270.5C480 268.3 510 258.7 540 251.5C570 244.3 600 239.7 630 240.7C660 241.7 690 248.3 720 252.2C750 256 780 257 810 251.5C840 246 870 234 885 228L900 222L900 177L885 178.2C870 179.3 840 181.7 810 182.8C780 184 750 184 720 180.7C690 177.3 660 170.7 630 165.7C600 160.7 570 157.3 540 161.7C510 166 480 178 450 181.3C420 184.7 390 179.3 360 171.7C330 164 300 154 270 147.3C240 140.7 210 137.3 180 147.8C150 158.3 120 182.7 90 190.5C60 198.3 30 189.7 15 185.3L0 181Z" fill="#d6dde5"></path><path d="M0 285L15 284.5C30 284 60 283 90 284C120 285 150 288 180 287.3C210 286.7 240 282.3 270 281.3C300 280.3 330 282.7 360 286C390 289.3 420 293.7 450 294.7C480 295.7 510 293.3 540 289.5C570 285.7 600 280.3 630 278.8C660 277.3 690 279.7 720 280.2C750 280.7 780 279.3 810 276.5C840 273.7 870 269.3 885 267.2L900 265L900 220L885 226C870 232 840 244 810 249.5C780 255 750 254 720 250.2C690 246.3 660 239.7 630 238.7C600 237.7 570 242.3 540 249.5C510 256.7 480 266.3 450 268.5C420 270.7 390 265.3 360 260.5C330 255.7 300 251.3 270 248.5C240 245.7 210 244.3 180 245.8C150 247.3 120 251.7 90 252.3C60 253 30 250 15 248.5L0 247Z" fill="#9ea5b1"></path><path d="M0 318L15 318C30 318 60 318 90 316.3C120 314.7 150 311.3 180 310.2C210 309 240 310 270 310C300 310 330 309 360 310.2C390 311.3 420 314.7 450 315.8C480 317 510 316 540 313.8C570 311.7 600 308.3 630 306C660 303.7 690 302.3 720 302.8C750 303.3 780 305.7 810 305.7C840 305.7 870 303.3 885 302.2L900 301L900 263L885 265.2C870 267.3 840 271.7 810 274.5C780 277.3 750 278.7 720 278.2C690 277.7 660 275.3 630 276.8C600 278.3 570 283.7 540 287.5C510 291.3 480 293.7 450 292.7C420 291.7 390 287.3 360 284C330 280.7 300 278.3 270 279.3C240 280.3 210 284.7 180 285.3C150 286 120 283 90 282C60 281 30 282 15 282.5L0 283Z" fill="#687180"></path><path d="M0 331L15 331C30 331 60 331 90 331C120 331 150 331 180 331C210 331 240 331 270 331C300 331 330 331 360 331C390 331 420 331 450 331C480 331 510 331 540 331C570 331 600 331 630 331C660 331 690 331 720 331C750 331 780 331 810 331C840 331 870 331 885 331L900 331L900 299L885 300.2C870 301.3 840 303.7 810 303.7C780 303.7 750 301.3 720 300.8C690 300.3 660 301.7 630 304C600 306.3 570 309.7 540 311.8C510 314 480 315 450 313.8C420 312.7 390 309.3 360 308.2C330 307 300 308 270 308C240 308 210 307 180 308.2C150 309.3 120 312.7 90 314.3C60 316 30 316 15 316L0 316Z" fill="#374151"></path></svg>