<svg id="visual" viewBox="0 0 900 600" width="900" height="600" xmlns="http://www.w3.org/2000/svg" xmlns:xlink="http://www.w3.org/1999/xlink" version="1.1"><path d="M0 245L21.5 257.5C43 270 86 295 128.8 297.3C171.7 299.7 214.3 279.3 257.2 262.7C300 246 343 233 385.8 234.5C428.7 236 471.3 252 514.2 267.5C557 283 600 298 642.8 289.2C685.7 280.3 728.3 247.7 771.2 239.3C814 231 857 247 878.5 255L900 263L900 601L878.5 601C857 601 814 601 771.2 601C728.3 601 685.7 601 642.8 601C600 601 557 601 514.2 601C471.3 601 428.7 601 385.8 601C343 601 300 601 257.2 601C214.3 601 171.7 601 128.8 601C86 601 43 601 21.5 601L0 601Z" fill="#334155" stroke-linecap="round" stroke-linejoin="miter"></path></svg>