<svg id="visual" viewBox="0 0 900 600" width="900" height="600" xmlns="http://www.w3.org/2000/svg" xmlns:xlink="http://www.w3.org/1999/xlink" version="1.1"><path d="M0 244L30 254.5C60 265 120 286 180 304.2C240 322.3 300 337.7 360 334.8C420 332 480 311 540 310.3C600 309.7 660 329.3 720 321C780 312.7 840 276.3 870 258.2L900 240L900 601L870 601C840 601 780 601 720 601C660 601 600 601 540 601C480 601 420 601 360 601C300 601 240 601 180 601C120 601 60 601 30 601L0 601Z" fill="#374151" stroke-linecap="round" stroke-linejoin="miter"></path></svg>