<svg id="visual" viewBox="0 0 900 150" width="900" height="150" xmlns="http://www.w3.org/2000/svg" xmlns:xlink="http://www.w3.org/1999/xlink" version="1.1"><rect x="0" y="0" width="900" height="150" fill="#e2e8f0"></rect><path d="M0 39L21.5 44C43 49 86 59 128.8 60.2C171.7 61.3 214.3 53.7 257.2 55C300 56.3 343 66.7 385.8 70C428.7 73.3 471.3 69.7 514.2 68.7C557 67.7 600 69.3 642.8 66.2C685.7 63 728.3 55 771.2 53.8C814 52.7 857 58.3 878.5 61.2L900 64L900 151L878.5 151C857 151 814 151 771.2 151C728.3 151 685.7 151 642.8 151C600 151 557 151 514.2 151C471.3 151 428.7 151 385.8 151C343 151 300 151 257.2 151C214.3 151 171.7 151 128.8 151C86 151 43 151 21.5 151L0 151Z" fill="#e2e8f0"></path><path d="M0 82L21.5 80.7C43 79.3 86 76.7 128.8 75.2C171.7 73.7 214.3 73.3 257.2 71.7C300 70 343 67 385.8 67.7C428.7 68.3 471.3 72.7 514.2 76.7C557 80.7 600 84.3 642.8 80.5C685.7 76.7 728.3 65.3 771.2 65C814 64.7 857 75.3 878.5 80.7L900 86L900 151L878.5 151C857 151 814 151 771.2 151C728.3 151 685.7 151 642.8 151C600 151 557 151 514.2 151C471.3 151 428.7 151 385.8 151C343 151 300 151 257.2 151C214.3 151 171.7 151 128.8 151C86 151 43 151 21.5 151L0 151Z" fill="#bdc4ce"></path><path d="M0 88L21.5 89.2C43 90.3 86 92.7 128.8 92.7C171.7 92.7 214.3 90.3 257.2 88.5C300 86.7 343 85.3 385.8 83C428.7 80.7 471.3 77.3 514.2 75C557 72.7 600 71.3 642.8 71.7C685.7 72 728.3 74 771.2 74.7C814 75.3 857 74.7 878.5 74.3L900 74L900 151L878.5 151C857 151 814 151 771.2 151C728.3 151 685.7 151 642.8 151C600 151 557 151 514.2 151C471.3 151 428.7 151 385.8 151C343 151 300 151 257.2 151C214.3 151 171.7 151 128.8 151C86 151 43 151 21.5 151L0 151Z" fill="#99a1ad"></path><path d="M0 95L21.5 94.2C43 93.3 86 91.7 128.8 94.2C171.7 96.7 214.3 103.3 257.2 106.2C300 109 343 108 385.8 104.8C428.7 101.7 471.3 96.3 514.2 97.2C557 98 600 105 642.8 106C685.7 107 728.3 102 771.2 99.2C814 96.3 857 95.7 878.5 95.3L900 95L900 151L878.5 151C857 151 814 151 771.2 151C728.3 151 685.7 151 642.8 151C600 151 557 151 514.2 151C471.3 151 428.7 151 385.8 151C343 151 300 151 257.2 151C214.3 151 171.7 151 128.8 151C86 151 43 151 21.5 151L0 151Z" fill="#777f8d"></path><path d="M0 106L21.5 108C43 110 86 114 128.8 116.7C171.7 119.3 214.3 120.7 257.2 119.5C300 118.3 343 114.7 385.8 114C428.7 113.3 471.3 115.7 514.2 115C557 114.3 600 110.7 642.8 110C685.7 109.3 728.3 111.7 771.2 114.8C814 118 857 122 878.5 124L900 126L900 151L878.5 151C857 151 814 151 771.2 151C728.3 151 685.7 151 642.8 151C600 151 557 151 514.2 151C471.3 151 428.7 151 385.8 151C343 151 300 151 257.2 151C214.3 151 171.7 151 128.8 151C86 151 43 151 21.5 151L0 151Z" fill="#565f6e"></path><path d="M0 122L21.5 123.3C43 124.7 86 127.3 128.8 128.7C171.7 130 214.3 130 257.2 130.8C300 131.7 343 133.3 385.8 132.7C428.7 132 471.3 129 514.2 128.3C557 127.7 600 129.3 642.8 130C685.7 130.7 728.3 130.3 771.2 131.7C814 133 857 136 878.5 137.5L900 139L900 151L878.5 151C857 151 814 151 771.2 151C728.3 151 685.7 151 642.8 151C600 151 557 151 514.2 151C471.3 151 428.7 151 385.8 151C343 151 300 151 257.2 151C214.3 151 171.7 151 128.8 151C86 151 43 151 21.5 151L0 151Z" fill="#374151"></path></svg>