<svg id="visual" viewBox="0 0 900 600" width="900" height="600" xmlns="http://www.w3.org/2000/svg" xmlns:xlink="http://www.w3.org/1999/xlink" version="1.1"><path d="M0 285L30 291.5C60 298 120 311 180 327.2C240 343.3 300 362.7 360 362.3C420 362 480 342 540 315.2C600 288.3 660 254.7 720 252.5C780 250.3 840 279.7 870 294.3L900 309L900 601L870 601C840 601 780 601 720 601C660 601 600 601 540 601C480 601 420 601 360 601C300 601 240 601 180 601C120 601 60 601 30 601L0 601Z" fill="#334155" stroke-linecap="round" stroke-linejoin="miter"></path></svg>