<svg id="visual" viewBox="0 0 900 1800" width="900" height="1800" xmlns="http://www.w3.org/2000/svg" xmlns:xlink="http://www.w3.org/1999/xlink" version="1.1"><rect x="0" y="0" width="900" height="1800" fill="#374151"></rect><path d="M0 1549L21.5 1553.8C43 1558.7 86 1568.3 128.8 1594.8C171.7 1621.3 214.3 1664.7 257.2 1663.5C300 1662.3 343 1616.7 385.8 1592C428.7 1567.3 471.3 1563.7 514.2 1579C557 1594.3 600 1628.7 642.8 1650.2C685.7 1671.7 728.3 1680.3 771.2 1670C814 1659.7 857 1630.3 878.5 1615.7L900 1601L900 1801L878.5 1801C857 1801 814 1801 771.2 1801C728.3 1801 685.7 1801 642.8 1801C600 1801 557 1801 514.2 1801C471.3 1801 428.7 1801 385.8 1801C343 1801 300 1801 257.2 1801C214.3 1801 171.7 1801 128.8 1801C86 1801 43 1801 21.5 1801L0 1801Z" fill="#e2e8f0" stroke-linecap="round" stroke-linejoin="miter"></path></svg>