<svg id="visual" viewBox="0 0 900 150" width="900" height="150" xmlns="http://www.w3.org/2000/svg" xmlns:xlink="http://www.w3.org/1999/xlink" version="1.1"><rect x="0" y="0" width="900" height="150" fill="#374151"></rect><path d="M0 45L21.5 50.2C43 55.3 86 65.7 128.8 70.2C171.7 74.7 214.3 73.3 257.2 66.8C300 60.3 343 48.7 385.8 49.2C428.7 49.7 471.3 62.3 514.2 64.2C557 66 600 57 642.8 51C685.7 45 728.3 42 771.2 44C814 46 857 53 878.5 56.5L900 60L900 151L878.5 151C857 151 814 151 771.2 151C728.3 151 685.7 151 642.8 151C600 151 557 151 514.2 151C471.3 151 428.7 151 385.8 151C343 151 300 151 257.2 151C214.3 151 171.7 151 128.8 151C86 151 43 151 21.5 151L0 151Z" fill="#374151"></path><path d="M0 74L21.5 71.5C43 69 86 64 128.8 66.5C171.7 69 214.3 79 257.2 80C300 81 343 73 385.8 70.5C428.7 68 471.3 71 514.2 70.8C557 70.7 600 67.3 642.8 66.5C685.7 65.7 728.3 67.3 771.2 68.7C814 70 857 71 878.5 71.5L900 72L900 151L878.5 151C857 151 814 151 771.2 151C728.3 151 685.7 151 642.8 151C600 151 557 151 514.2 151C471.3 151 428.7 151 385.8 151C343 151 300 151 257.2 151C214.3 151 171.7 151 128.8 151C86 151 43 151 21.5 151L0 151Z" fill="#565f6e"></path><path d="M0 87L21.5 89C43 91 86 95 128.8 97.2C171.7 99.3 214.3 99.7 257.2 96.5C300 93.3 343 86.7 385.8 83.7C428.7 80.7 471.3 81.3 514.2 82.8C557 84.3 600 86.7 642.8 85.2C685.7 83.7 728.3 78.3 771.2 79.5C814 80.7 857 88.3 878.5 92.2L900 96L900 151L878.5 151C857 151 814 151 771.2 151C728.3 151 685.7 151 642.8 151C600 151 557 151 514.2 151C471.3 151 428.7 151 385.8 151C343 151 300 151 257.2 151C214.3 151 171.7 151 128.8 151C86 151 43 151 21.5 151L0 151Z" fill="#777f8d"></path><path d="M0 94L21.5 93.2C43 92.3 86 90.7 128.8 92.8C171.7 95 214.3 101 257.2 103.7C300 106.3 343 105.7 385.8 102.5C428.7 99.3 471.3 93.7 514.2 91.2C557 88.7 600 89.3 642.8 91.7C685.7 94 728.3 98 771.2 99.7C814 101.3 857 100.7 878.5 100.3L900 100L900 151L878.5 151C857 151 814 151 771.2 151C728.3 151 685.7 151 642.8 151C600 151 557 151 514.2 151C471.3 151 428.7 151 385.8 151C343 151 300 151 257.2 151C214.3 151 171.7 151 128.8 151C86 151 43 151 21.5 151L0 151Z" fill="#99a1ad"></path><path d="M0 119L21.5 117.2C43 115.3 86 111.7 128.8 111.5C171.7 111.3 214.3 114.7 257.2 115.3C300 116 343 114 385.8 111.8C428.7 109.7 471.3 107.3 514.2 106.7C557 106 600 107 642.8 109.5C685.7 112 728.3 116 771.2 117.3C814 118.7 857 117.3 878.5 116.7L900 116L900 151L878.5 151C857 151 814 151 771.2 151C728.3 151 685.7 151 642.8 151C600 151 557 151 514.2 151C471.3 151 428.7 151 385.8 151C343 151 300 151 257.2 151C214.3 151 171.7 151 128.8 151C86 151 43 151 21.5 151L0 151Z" fill="#bdc4ce"></path><path d="M0 136L21.5 134.5C43 133 86 130 128.8 128C171.7 126 214.3 125 257.2 124.3C300 123.7 343 123.3 385.8 123.7C428.7 124 471.3 125 514.2 126C557 127 600 128 642.8 129.8C685.7 131.7 728.3 134.3 771.2 133C814 131.7 857 126.3 878.5 123.7L900 121L900 151L878.5 151C857 151 814 151 771.2 151C728.3 151 685.7 151 642.8 151C600 151 557 151 514.2 151C471.3 151 428.7 151 385.8 151C343 151 300 151 257.2 151C214.3 151 171.7 151 128.8 151C86 151 43 151 21.5 151L0 151Z" fill="#e2e8f0"></path></svg>